<?xml version="1.0" standalone="no"?>
<!--
  - Copyright (c) 2025 Max Lemberg. This file is part of ChessMax.
  - Licenced under the CC BY-NC 4.0 License.
  - See "http://creativecommons.org/licenses/by-nc/4.0/".
  -->

<!DOCTYPE svg PUBLIC "-//W3C//DTD SVG 20010904//EN"
    "http://www.w3.org/TR/2001/REC-SVG-20010904/DTD/svg10.dtd">
<svg height="512.000000pt" preserveAspectRatio="xMidYMid meet"
     version="1.0" viewBox="0 0 512.000000 512.000000" width="512.000000pt"
     xmlns="http://www.w3.org/2000/svg">
    <metadata>
        Created by potrace 1.16, written by Peter Selinger 2001-2019
    </metadata>
    <g fill="#DB9D47"
       stroke="none" transform="translate(0.000000,512.000000) scale(0.100000,-0.100000)">
        <path d="M1470 4908 c-141 -50 -237 -133 -301 -263 -77 -157 -71 -337 17 -492
18 -31 296 -318 798 -820 l771 -773 -771 -772 c-502 -503 -780 -790 -798 -821
-170 -299 -21 -667 308 -762 46 -13 85 -16 167 -13 103 4 113 7 196 47 l88 43
958 957 c527 526 976 981 999 1012 81 112 113 238 96 380 -10 86 -41 162 -96
238 -23 31 -472 486 -999 1012 l-958 957 -88 43 c-87 42 -91 43 -205 46 -102
3 -126 1 -182 -19z"/>
    </g>
</svg>
