<?xml version="1.0" standalone="no"?>
<!--
  - Copyright (c) 2025 Max Lemberg. This file is part of ChessMax.
  - Licenced under the CC BY-NC 4.0 License.
  - See "http://creativecommons.org/licenses/by-nc/4.0/".
  -->

<!DOCTYPE svg PUBLIC "-//W3C//DTD SVG 20010904//EN"
    "http://www.w3.org/TR/2001/REC-SVG-20010904/DTD/svg10.dtd">
<svg height="512.000000pt" preserveAspectRatio="xMidYMid meet"
     version="1.0" viewBox="0 0 512.000000 512.000000" width="512.000000pt"
     xmlns="http://www.w3.org/2000/svg">
    <g fill="#DB9D47"
       stroke="none" transform="translate(0.000000,512.000000) scale(0.100000,-0.100000)">
        <path d="M3730 5104 c-96 -25 -197 -81 -270 -151 -88 -82 -136 -155 -174 -263
l-31 -85 -5 -834 -5 -833 -35 43 c-43 54 -1426 1684 -1489 1756 -134 150 -297
226 -491 226 -118 1 -181 -14 -290 -65 -69 -33 -100 -56 -165 -122 -160 -161
-223 -362 -181 -576 35 -173 35 -174 686 -940 324 -382 590 -697 590 -700 0
-3 -266 -317 -590 -699 -348 -410 -601 -717 -619 -750 -57 -108 -76 -184 -75
-311 0 -182 52 -315 175 -445 123 -129 277 -196 457 -197 53 -1 122 4 152 11
92 21 229 93 290 153 45 43 1430 1666 1550 1817 l35 43 5 -833 5 -834 31 -85
c38 -108 86 -181 174 -263 120 -114 259 -167 435 -167 187 0 325 57 455 189
80 81 134 170 167 276 17 57 18 148 18 2095 0 1947 -1 2038 -18 2095 -33 106
-87 195 -167 276 -132 133 -269 190 -460 188 -58 0 -130 -7 -160 -15z"/>
    </g>
</svg>
